P2
#Yin Yang PMG created by hand using Atom
18 18
10
10 10 10 10 10 10 10 10 10 10 10 10 10 10 10 10 10 10
10 10 10 10 10 10 0 0 0 0 0 0 10 10 10 10 10 10
10 10 10 10 0 0 0 0 0 0 0 0 0 0 10 10 10 10
10 10 10 0 0 0 0 0 0 0 0 0 0 0 0 10 10 10
10 10 0 0 0 0 0 10 10 0 0 0 0 0 0 0 10 10
10 10 0 0 0 0 0 10 10 0 0 0 0 10 10 0 10 10
10 0 0 0 0 0 0 0 0 0 0 0 0 10 10 10 0 10
10 0 0 0 0 0 0 0 0 0 0 0 10 10 10 10 0 10
10 0 0 0 0 0 0 0 0 0 0 10 10 10 10 10 0 10
10 0 0 0 0 0 0 0 0 0 10 10 10 10 10 10 0 10
10 0 0 0 0 0 10 10 10 10 10 10 10 10 10 10 0 10
10 0 0 0 0 10 10 10 10 10 10 10 10 10 10 10 0 10
10 10 0 0 0 10 10 10 10 0 0 10 10 10 10 0 10 10
10 10 0 0 0 10 10 10 10 0 0 10 10 10 0 0 10 10
10 10 10 0 0 0 10 10 10 10 10 10 10 0 0 10 10 10
10 10 10 10 0 0 0 0 10 10 10 10 0 0 10 10 10 10
10 10 10 10 10 10 0 0 0 0 0 0 10 10 10 10 10 10
10 10 10 10 10 10 10 10 10 10 10 10 10 10 10 10 10 10
