P2
#h PMG created by hand using Atom (5 rows 3 columns)
5 3
10
10 10 5 5 5
10 10 5 10 10
5 5 5 5 5
